<?xml version="1.0" encoding="utf-8"?>
<!-- Generator: Adobe Illustrator 25.4.1, SVG Export Plug-In . SVG Version: 6.00 Build 0)  -->
<svg version="1.1" id="Layer_1" xmlns="http://www.w3.org/2000/svg" xmlns:xlink="http://www.w3.org/1999/xlink" x="0px" y="0px"
	 viewBox="0 0 530 494" style="enable-background:new 0 0 530 494;" xml:space="preserve">
<style type="text/css">
	.st0{display:none;fill:#1F1F1E;}
	.st1{fill:#FFFFFF;}
	.st2{fill:#009890;}
	
		.st3{clip-path:url(#SVGID_00000010295640636108685570000006674684495516242325_);fill:url(#SVGID_00000034780323940211792380000005761855230097556410_);}
	.st4{fill:#90C03C;}
	
		.st5{clip-path:url(#SVGID_00000013873409042266477450000002179319257986990230_);fill:url(#SVGID_00000042700018135400882550000009941435074553916333_);}
	.st6{fill:#C8B243;}
	
		.st7{clip-path:url(#SVGID_00000173864561883906925320000018185962807613821360_);fill:url(#SVGID_00000157292469625035926250000009009686114001239433_);}
	.st8{fill:#F3C780;}
	.st9{opacity:0.8;fill:url(#SVGID_00000145770286560403369390000001441111531800949678_);}
	
		.st10{clip-path:url(#SVGID_00000054967845560676274030000008769277010026469254_);fill:url(#SVGID_00000018195856989474045590000006158398131268454307_);}
	
		.st11{clip-path:url(#SVGID_00000075869071177991378790000016580680653863778953_);fill:url(#SVGID_00000016052891341190050010000011378104550418774463_);}
	
		.st12{clip-path:url(#SVGID_00000150800192990178397960000015110723941636247200_);fill:url(#SVGID_00000156557494096626424670000006278794173227598248_);}
	.st13{opacity:0.8;fill:url(#SVGID_00000089560322619135712180000004657892724901136309_);}
	.st14{fill:#575756;}
	.st15{fill:#70706E;}
	.st16{fill:url(#SVGID_00000182530813764866613430000007147172767107009952_);}
</style>
<rect x="-23.5" y="-20.4" class="st0" width="579.9" height="531.8"/>
<g>
	<path class="st1" d="M461.6,366.2c0,5.4-4.2,9.6-9.7,9.6c-5.4,0-9.7-4.2-9.7-9.6c0-5.2,4.3-9.4,9.7-9.4
		C457.4,356.8,461.6,361,461.6,366.2z M444.6,366.2c0,4.2,3.1,7.5,7.4,7.5c4.1,0,7.2-3.3,7.2-7.5s-3.1-7.6-7.3-7.6
		C447.8,358.7,444.6,362.1,444.6,366.2z M450.5,371.2h-2.2v-9.4c0.9-0.2,2.1-0.3,3.6-0.3c1.8,0,2.6,0.3,3.3,0.7
		c0.5,0.4,0.9,1.2,0.9,2.1c0,1-0.8,1.8-2,2.2v0.1c0.9,0.3,1.4,1,1.7,2.3c0.3,1.4,0.5,2,0.7,2.4h-2.4c-0.3-0.3-0.5-1.2-0.7-2.3
		c-0.2-1-0.7-1.5-2-1.5h-1v3.7H450.5z M450.5,365.8h1c1.2,0,2.2-0.4,2.2-1.4c0-0.9-0.6-1.4-2-1.4c-0.6,0-1,0.1-1.2,0.1V365.8z"/>
</g>
<g>
	<g>
		<g>
			<g>
				<g>
					<g>
						<g>
							<g>
								<path class="st2" d="M61.7,188.4c52.2,61.7,201.2-150.4,256,28C265.7,166.2,164,344.2,61.7,188.4z"/>
								<g>
									<defs>
										<path id="SVGID_1_" d="M61.7,188.4c52.2,61.7,201.2-150.4,256,28C265.7,166.2,164,344.2,61.7,188.4z"/>
									</defs>
									<clipPath id="SVGID_00000099647191374211763490000005198525459877622677_">
										<use xlink:href="#SVGID_1_"  style="overflow:visible;"/>
									</clipPath>
									
										<linearGradient id="SVGID_00000149368056445873257340000011943049593109983382_" gradientUnits="userSpaceOnUse" x1="56.244" y1="140.3551" x2="246.5582" y2="140.3551" gradientTransform="matrix(0.9318 0.3629 -0.3629 0.9318 77.5187 -7.1732)">
										<stop  offset="4.784690e-03" style="stop-color:#FFFFFF"/>
										<stop  offset="0.1406" style="stop-color:#FFFFFF;stop-opacity:0.8635"/>
										<stop  offset="1" style="stop-color:#FFFFFF;stop-opacity:0"/>
									</linearGradient>
									
										<path style="clip-path:url(#SVGID_00000099647191374211763490000005198525459877622677_);fill:url(#SVGID_00000149368056445873257340000011943049593109983382_);" d="
										M61.7,188.4c0,0,33.1,43.8,84.4,30.9c51.3-12.8,78.1-42.2,110.6-36.7c32.5,5.5,16.4-74.4-86.4-18.9
										C87.5,208.5,61.7,188.4,61.7,188.4z"/>
								</g>
							</g>
							<g>
								<path class="st4" d="M28.5,55.8C27.2,136.6,278.9,75,202.9,245.3C196.8,173.3,3.1,240.4,28.5,55.8z"/>
								<g>
									<defs>
										<path id="SVGID_00000158741228489699453250000005109107686685727645_" d="M28.5,55.8C27.2,136.6,278.9,75,202.9,245.3
											C196.8,173.3,3.1,240.4,28.5,55.8z"/>
									</defs>
									<clipPath id="SVGID_00000000221095172672266880000016574890733098682509_">
										<use xlink:href="#SVGID_00000158741228489699453250000005109107686685727645_"  style="overflow:visible;"/>
									</clipPath>
									
										<linearGradient id="SVGID_00000006684745452896326110000001118664298259677850_" gradientUnits="userSpaceOnUse" x1="-129.9042" y1="343.2986" x2="60.3981" y2="343.2986" gradientTransform="matrix(0.4628 0.8865 -0.8865 0.4628 435.246 -9.9625)">
										<stop  offset="4.784690e-03" style="stop-color:#FFFFFF"/>
										<stop  offset="0.1406" style="stop-color:#FFFFFF;stop-opacity:0.8635"/>
										<stop  offset="1" style="stop-color:#FFFFFF;stop-opacity:0"/>
									</linearGradient>
									
										<path style="clip-path:url(#SVGID_00000000221095172672266880000016574890733098682509_);fill:url(#SVGID_00000006684745452896326110000001118664298259677850_);" d="
										M28.5,55.8c0,0-3.9,54.7,43.2,78.8c47.1,24.1,86.6,19.6,107.4,45.1c20.8,25.6,61.3-45.2-52.6-71.1
										C34.7,87.9,28.5,55.8,28.5,55.8z"/>
								</g>
							</g>
							<g>
								<path class="st6" d="M81.3,39.6C70.1,107.3,295,102.4,208.1,231.5C211.8,169.8,36.3,190.1,81.3,39.6z"/>
								<g>
									<defs>
										<path id="SVGID_00000036223116332643007890000015108721890123780225_" d="M81.3,39.6C70.1,107.3,295,102.4,208.1,231.5
											C211.8,169.8,36.3,190.1,81.3,39.6z"/>
									</defs>
									<clipPath id="SVGID_00000104695510419390738800000005618187244792759175_">
										<use xlink:href="#SVGID_00000036223116332643007890000015108721890123780225_"  style="overflow:visible;"/>
									</clipPath>
									
										<linearGradient id="SVGID_00000117654116807408166440000016938885461923475886_" gradientUnits="userSpaceOnUse" x1="-104.8944" y1="362.1168" x2="65.1502" y2="362.1168" gradientTransform="matrix(0.296 0.9552 -0.9552 0.296 499.9872 19.6627)">
										<stop  offset="4.784690e-03" style="stop-color:#FFFFFF"/>
										<stop  offset="0.1406" style="stop-color:#FFFFFF;stop-opacity:0.8635"/>
										<stop  offset="1" style="stop-color:#FFFFFF;stop-opacity:0"/>
									</linearGradient>
									
										<path style="clip-path:url(#SVGID_00000104695510419390738800000005618187244792759175_);fill:url(#SVGID_00000117654116807408166440000016938885461923475886_);" d="
										M81.3,39.6c0,0-10.2,45.3,27.4,74.3c37.6,29,72.2,32.6,87,58c14.8,25.4,58.6-26.6-36.5-69.6C82.7,67.7,81.3,39.6,81.3,39.6
										z"/>
								</g>
							</g>
							<g>
								<path class="st8" d="M220.5,210.7c16-54.9-168.7-77.3-79.5-169.7C131.7,91.5,279.3,93.5,220.5,210.7z"/>
								
									<linearGradient id="SVGID_00000003801049473870306700000016100338293151848349_" gradientUnits="userSpaceOnUse" x1="-67.2233" y1="350.7288" x2="75.4388" y2="350.7288" gradientTransform="matrix(0.1847 0.9828 -0.9828 0.1847 529.4147 36.3095)">
									<stop  offset="4.784690e-03" style="stop-color:#FFFFFF"/>
									<stop  offset="0.1406" style="stop-color:#FFFFFF;stop-opacity:0.8635"/>
									<stop  offset="1" style="stop-color:#FFFFFF;stop-opacity:0"/>
								</linearGradient>
								<path style="opacity:0.8;fill:url(#SVGID_00000003801049473870306700000016100338293151848349_);" d="M140.9,40.9
									c0,0-19.9,38.9,7.9,66.2c27.8,27.3,61.3,31.2,70.9,53.4c9.5,22.2,49.9-0.5-15.2-55.9c-13.6-11.6-32.3-21.1-40.9-27.3
									C134.8,56.6,140.9,40.9,140.9,40.9z"/>
							</g>
						</g>
						<g>
							<g>
								<g>
									<path class="st2" d="M456.3,190.5c-52.2,61.7-201.2-150.4-256,28C252.2,168.2,353.9,346.2,456.3,190.5z"/>
									<g>
										<defs>
											<path id="SVGID_00000018944381643999387040000017970134380297192601_" d="M456.3,190.5c-52.2,61.7-201.2-150.4-256,28
												C252.2,168.2,353.9,346.2,456.3,190.5z"/>
										</defs>
										<clipPath id="SVGID_00000111903176738531118530000004267744654759400892_">
											<use xlink:href="#SVGID_00000018944381643999387040000017970134380297192601_"  style="overflow:visible;"/>
										</clipPath>
										
											<linearGradient id="SVGID_00000119100128063844525570000016060910628041502359_" gradientUnits="userSpaceOnUse" x1="300.6801" y1="47.3425" x2="490.9973" y2="47.3425" gradientTransform="matrix(-0.9318 0.3629 0.3629 0.9318 701.9425 -7.1732)">
											<stop  offset="4.784690e-03" style="stop-color:#FFFFFF"/>
											<stop  offset="0.1406" style="stop-color:#FFFFFF;stop-opacity:0.8635"/>
											<stop  offset="1" style="stop-color:#FFFFFF;stop-opacity:0"/>
										</linearGradient>
										
											<path style="clip-path:url(#SVGID_00000111903176738531118530000004267744654759400892_);fill:url(#SVGID_00000119100128063844525570000016060910628041502359_);" d="
											M456.3,190.5c0,0-33.1,43.8-84.4,30.9c-51.3-12.8-78.1-42.2-110.6-36.7c-32.5,5.5-16.4-74.4,86.4-18.9
											C430.5,210.5,456.3,190.5,456.3,190.5z"/>
									</g>
								</g>
								<g>
									<path class="st4" d="M487.7,56c1.3,80.8-250.4,19.1-174.3,189.5C319.4,173.5,513.1,240.5,487.7,56z"/>
									<g>
										<defs>
											<path id="SVGID_00000106851289942474060060000008137276136919431553_" d="M487.7,56c1.3,80.8-250.4,19.1-174.3,189.5
												C319.4,173.5,513.1,240.5,487.7,56z"/>
										</defs>
										<clipPath id="SVGID_00000170990478165676614070000015352140807708736662_">
											<use xlink:href="#SVGID_00000106851289942474060060000008137276136919431553_"  style="overflow:visible;"/>
										</clipPath>
										
											<linearGradient id="SVGID_00000165206502278022314610000009776460409639127472_" gradientUnits="userSpaceOnUse" x1="-383.526" y1="629.6059" x2="-193.2239" y2="629.6059" gradientTransform="matrix(-0.4628 0.8865 0.8865 0.4628 -290.2079 82.5116)">
											<stop  offset="4.784690e-03" style="stop-color:#FFFFFF"/>
											<stop  offset="0.1406" style="stop-color:#FFFFFF;stop-opacity:0.8635"/>
											<stop  offset="1" style="stop-color:#FFFFFF;stop-opacity:0"/>
										</linearGradient>
										
											<path style="clip-path:url(#SVGID_00000170990478165676614070000015352140807708736662_);fill:url(#SVGID_00000165206502278022314610000009776460409639127472_);" d="
											M487.7,56c0,0,3.9,54.7-43.2,78.8c-47.1,24.1-86.6,19.6-107.4,45.1c-20.8,25.6-61.3-45.2,52.6-71.1
											C481.5,88,487.7,56,487.7,56z"/>
									</g>
								</g>
								<g>
									<path class="st6" d="M434.9,39.7c11.2,67.7-213.7,62.8-126.8,191.9C304.4,169.9,479.9,190.2,434.9,39.7z"/>
									<g>
										<defs>
											<path id="SVGID_00000165919998780182397550000003722806616013490316_" d="M434.9,39.7c11.2,67.7-213.7,62.8-126.8,191.9
												C304.4,169.9,479.9,190.2,434.9,39.7z"/>
										</defs>
										<clipPath id="SVGID_00000009587073383831176550000000113674139562013061_">
											<use xlink:href="#SVGID_00000165919998780182397550000003722806616013490316_"  style="overflow:visible;"/>
										</clipPath>
										
											<linearGradient id="SVGID_00000065060443557893281140000015313718293034549435_" gradientUnits="userSpaceOnUse" x1="-302.9598" y1="689.3356" x2="-132.914" y2="689.3356" gradientTransform="matrix(-0.296 0.9552 0.9552 0.296 -354.9476 112.1366)">
											<stop  offset="4.784690e-03" style="stop-color:#FFFFFF"/>
											<stop  offset="0.1406" style="stop-color:#FFFFFF;stop-opacity:0.8635"/>
											<stop  offset="1" style="stop-color:#FFFFFF;stop-opacity:0"/>
										</linearGradient>
										
											<path style="clip-path:url(#SVGID_00000009587073383831176550000000113674139562013061_);fill:url(#SVGID_00000065060443557893281140000015313718293034549435_);" d="
											M434.9,39.7c0,0,10.2,45.3-27.4,74.3c-37.6,29-72.2,32.6-87,58c-14.8,25.4-58.6-26.6,36.5-69.6
											C433.6,67.8,434.9,39.7,434.9,39.7z"/>
									</g>
								</g>
								<g>
									<path class="st8" d="M295.8,210.8c-16-54.9,168.7-77.3,79.5-169.7C384.6,91.6,237,93.7,295.8,210.8z"/>
									
										<linearGradient id="SVGID_00000057847802830206319570000004660028399464385971_" gradientUnits="userSpaceOnUse" x1="-226.5242" y1="698.9681" x2="-85.8276" y2="698.9681" gradientTransform="matrix(-0.1847 0.9828 0.9828 0.1847 -384.3761 128.7836)">
										<stop  offset="4.784690e-03" style="stop-color:#FFFFFF"/>
										<stop  offset="0.1406" style="stop-color:#FFFFFF;stop-opacity:0.8635"/>
										<stop  offset="1" style="stop-color:#FFFFFF;stop-opacity:0"/>
									</linearGradient>
									<path style="opacity:0.8;fill:url(#SVGID_00000057847802830206319570000004660028399464385971_);" d="M375.3,41.1
										c0,0,19.9,38.9-7.9,66.2c-27.8,27.3-61.3,31.2-70.9,53.4c-9.5,22.2-48.4-12,21.7-61.1c13.3-9.3,35.2-22.6,44-30.8
										C380.5,51.4,375.3,41.1,375.3,41.1z"/>
								</g>
							</g>
						</g>
					</g>
				</g>
			</g>
		</g>
	</g>
</g>
<g>
	<g>
		<path class="st1" d="M52.1,415.1c-0.2-0.3-0.5-0.4-0.9-0.4c-0.3,0-0.7,0.1-0.9,0.4l-21.4,26.2c-0.3,0.3-0.3,0.8-0.1,1.2
			c0.2,0.4,0.6,0.6,1,0.6h2.3c0.3,0,0.7-0.2,0.9-0.4l12.9-16h10.8l12.8,16c0.2,0.3,0.5,0.4,0.9,0.4h1.7c0,0,0,0,0.1,0
			c0.6,0,1.1-0.5,1.1-1.1c0-0.4-0.2-0.7-0.5-0.9L52.1,415.1z M49,422.8l2.2-2.8l2.2,2.8H49z"/>
		<path class="st1" d="M118.9,414.7h-1.7c-0.6,0-1.1,0.5-1.1,1.1v22.6l-35.6-23.6c-0.2-0.1-0.4-0.2-0.6-0.2h-1.7
			c-0.6,0-1.1,0.5-1.1,1.1v26.2c0,0.6,0.5,1.1,1.1,1.1h1.7c0,0,0,0,0.1,0c0.6,0,1.1-0.5,1.1-1.1c0-0.1,0-0.2-0.1-0.3l0-22.3
			l35.7,23.6c0.2,0.1,0.4,0.2,0.6,0.2h1.7c0.6,0,1.1-0.5,1.1-1.1v-26.2C120.1,415.2,119.6,414.7,118.9,414.7z"/>
		<path class="st1" d="M166.7,414.7h-40.8c-0.6,0-1.1,0.5-1.1,1.1v26.2c0,0.6,0.5,1.1,1.1,1.1h1.7c0.6,0,1.1-0.5,1.1-1.1v-15.3h18
			c0.6,0,1.1-0.5,1.1-1.1V424c0-0.6-0.5-1.1-1.1-1.1h-18v-4.2h38c0.6,0,1.1-0.5,1.1-1.1v-1.7C167.8,415.2,167.3,414.7,166.7,414.7z"
			/>
		<path class="st1" d="M177.5,414.7h-1.7c-0.6,0-1.1,0.5-1.1,1.1v26.2c0,0.6,0.5,1.1,1.1,1.1h1.7c0.6,0,1.1-0.5,1.1-1.1v-26.2
			C178.7,415.2,178.2,414.7,177.5,414.7z"/>
		<path class="st1" d="M226.6,414.7h-40.8c-0.6,0-1.1,0.5-1.1,1.1v1.7c0,0.6,0.5,1.1,1.1,1.1h18.9v23.4c0,0.6,0.5,1.1,1.1,1.1h1.7
			c0.6,0,1.1-0.5,1.1-1.1v-23.4h18c0.6,0,1.1-0.5,1.1-1.1v-1.7C227.7,415.2,227.2,414.7,226.6,414.7z"/>
		<path class="st1" d="M275.2,439.3h-38.8v-12.5h18c0.6,0,1.1-0.5,1.1-1.1V424c0-0.6-0.5-1.1-1.1-1.1h-18v-4.2h13
			c0.6,0,1.1-0.5,1.1-1.1v-1.7c0-0.6-0.5-1.1-1.1-1.1h-15.9c-0.6,0-1.1,0.5-1.1,1.1v26.2c0,0.6,0.5,1.1,1.1,1.1h41.7
			c0.6,0,1.1-0.5,1.1-1.1v-1.6C276.3,439.8,275.8,439.3,275.2,439.3z"/>
		<path class="st1" d="M303,415.1c-0.2-0.3-0.5-0.4-0.9-0.4c-0.5,0-0.7,0.1-0.9,0.4l-21.4,26.2c-0.3,0.3-0.3,0.8-0.1,1.2
			c0.2,0.4,0.6,0.6,1,0.6h2.3c0.3,0,0.7-0.2,0.9-0.4l12.9-16h10.8l12.8,16c0.2,0.3,0.5,0.4,0.9,0.4h1.8c0,0,0,0,0.1,0
			c0.6,0,1.1-0.5,1.1-1.1c0-0.4-0.2-0.7-0.5-0.9L303,415.1z M299.8,422.8l2.2-2.8l2.2,2.8H299.8z"/>
		<path class="st1" d="M363,414.7h-40.8c-0.6,0-1.1,0.5-1.1,1.1v1.7c0,0.6,0.5,1.1,1.1,1.1h18.9v23.4c0,0.6,0.5,1.1,1.1,1.1h1.7
			c0.6,0,1.1-0.5,1.1-1.1v-23.4h18c0.6,0,1.1-0.5,1.1-1.1v-1.7C364.2,415.2,363.6,414.7,363,414.7z"/>
		<path class="st1" d="M409.9,425.1c1.3-1.2,2-2.7,2-4.5c0-1.7-0.7-3.2-2.1-4.4c-1.3-1-2.8-1.5-4.5-1.5h-35.3
			c-0.6,0-1.1,0.5-1.1,1.1v26.2c0,0.6,0.5,1.1,1.1,1.1h1.7c0.6,0,1.1-0.5,1.1-1.1v-15.3h9.9l24.7,16.2c0.2,0.1,0.4,0.2,0.6,0.2h2.7
			c0.5,0,0.9-0.3,1.1-0.8c0.1-0.5,0-1-0.5-1.3l-21.8-14.3h15.7C407,426.8,408.6,426.2,409.9,425.1z M407.9,420.6
			c0,0.7-0.2,1.2-0.7,1.6c-0.5,0.4-1.2,0.6-1.9,0.6h-32.5v-4.2h32.5c0.7,0,1.4,0.2,1.9,0.6C407.7,419.7,407.9,420.1,407.9,420.6z"/>
		<path class="st1" d="M452.1,417.9c-4.1-2.1-8.7-3.2-13.6-3.2s-9.5,1.1-13.6,3.2c-5.3,2.7-8,6.4-8,11.1c0,4.9,2.7,8.7,7.9,11.3
			c4,1.9,8.6,2.9,13.7,2.9s9.7-1,13.7-2.9c5.3-2.6,7.9-6.4,7.9-11.3C460.1,424.3,457.4,420.5,452.1,417.9z M438.5,439.6
			c-4.1,0-8-0.9-11.5-2.5c-4.2-2-6.2-4.7-6.2-8c0-3.3,2-5.9,6.3-8c3.6-1.8,7.4-2.7,11.4-2.7c4,0,7.9,0.9,11.4,2.7
			c4.2,2.1,6.2,4.7,6.2,8c0,3.4-2,6-6.2,8C446.5,438.7,442.6,439.6,438.5,439.6z"/>
	</g>
	<g>
		<path class="st1" d="M98.7,345.9c1.7,0,2.8,0.5,3.3,1.6c0.5,1.1,0.6,2.4,0.4,4c3.9-6.9,7.1-12.7,9.8-17.3c2.7-4.6,5-8.4,6.9-11.2
			c1.9-2.9,3.6-5.1,5.1-6.5c1.5-1.4,3-2.4,4.6-3c1.6-0.6,3.2-0.8,5.1-0.8c1.8,0,4,0,6.6,0c-9.8,16.9-18.4,31.9-25.8,45.1
			c-3.2,5.6-6.3,11.2-9.2,16.5c-3,5.4-5.5,10.2-7.7,14.4c-2.2,4.2-3.8,7.6-5,10.2c-1.1,2.6-1.4,3.8-1,3.8c0.7,0,1.5-0.5,2.6-1.6
			c1.1-1,2.5-2.9,4.4-5.6c1.9-2.7,4.2-6.3,7.1-11c2.9-4.7,6.5-10.7,10.7-17.9h2.3c-4.1,7.3-7.6,13.6-10.5,18.6
			c-2.9,5-5.4,9.1-7.6,12.2c-2.2,3.1-4.1,5.4-5.8,6.7c-1.7,1.4-3.5,2.1-5.2,2.1c-2.1,0-3.7-0.4-4.8-1.3c-1.2-0.9-2-2.1-2.4-3.7
			c-0.4-1.6-0.6-3.5-0.3-5.6c0.2-2.2,0.7-4.5,1.4-6.9c-3.1,5.3-6,9.5-8.7,12.8c-2.7,3.2-5.3,4.8-7.7,4.8c-3,0-5.2-0.9-6.6-2.6
			c-1.3-1.7-2-4-2-6.9c0-2.8,0.6-6,1.8-9.6c1.2-3.6,2.8-7.3,4.8-11.1c2-3.8,4.3-7.5,7-11.1c2.7-3.6,5.5-6.8,8.5-9.6
			c3-2.8,6-5.1,9.1-6.9C92.9,346.8,95.8,345.9,98.7,345.9z M93.9,366.6c1.6-3.3,2.8-6.3,3.8-8.9c0.4-1.1,0.8-2.2,1.2-3.3
			c0.3-1.1,0.6-2,0.7-2.8c0.1-0.8,0.1-1.5,0-2c-0.1-0.5-0.4-0.8-0.8-0.8c-0.4,0-1.3,0.8-2.5,2.3c-1.2,1.6-2.7,3.6-4.3,6.1
			c-1.7,2.5-3.5,5.4-5.3,8.6c-1.9,3.2-3.8,6.5-5.7,9.9c-1.9,3.3-3.7,6.6-5.3,9.9c-1.6,3.2-3,6.1-4.2,8.6c-1.2,2.5-2,4.6-2.4,6.1
			c-0.4,1.6-0.4,2.3,0.2,2.3c0.5,0,1.3-0.5,2.3-1.6c1-1,2.1-2.4,3.4-4.1c1.3-1.7,2.6-3.6,4.1-5.8c1.4-2.2,2.9-4.4,4.3-6.6
			C86.5,379.4,90.1,373.4,93.9,366.6z"/>
		<path class="st1" d="M158.2,366.6c-2.9,6.1-5.9,11.6-9,16.4c-3.1,4.9-6.4,9-9.7,12.5c-3.3,3.5-6.8,6.1-10.3,8
			c-3.5,1.9-7.2,2.8-11,2.8c-3.9,0-6.8-0.9-8.7-2.6c-2-1.7-3.2-4-3.6-6.9c-0.4-2.8-0.2-6,0.7-9.6c0.9-3.6,2.3-7.3,4.1-11.1
			c1.9-3.8,4.1-7.5,6.8-11.1c2.7-3.6,5.6-6.8,8.8-9.6c3.2-2.8,6.5-5.1,9.9-6.9c3.5-1.7,6.9-2.6,10.3-2.6c3.2,0,5.5,0.8,7,2.5
			c1.5,1.7,2.2,3.8,2.2,6.5c0,2.6-0.8,5.5-2.3,8.6c-1.5,3.1-3.7,6.1-6.6,9.1c-2.9,2.9-6.4,5.5-10.5,7.9c-4.2,2.3-8.9,3.9-14.3,4.9
			c-1.1,2.5-2,4.9-2.7,7.1c-0.7,2.2-1.1,4.1-1.3,5.7c-0.1,1.6,0,2.9,0.5,3.8c0.5,0.9,1.4,1.4,2.6,1.4c1.2,0,2.9-0.4,5.2-1.3
			c2.3-0.9,4.9-2.7,7.9-5.3c3-2.7,6.4-6.4,10-11.2c3.7-4.8,7.5-11.1,11.4-18.9H158.2z M146.5,348.4c-0.5,0-1.3,0.5-2.3,1.5
			c-1,1-2.2,2.4-3.5,4.1c-1.3,1.7-2.7,3.8-4.3,6.1c-1.6,2.3-3.1,4.8-4.7,7.4c-1.6,2.6-3.1,5.3-4.6,8c-1.5,2.7-2.9,5.4-4.1,8
			c1.9-1,3.8-2.5,5.7-4.7c2-2.2,3.9-4.5,5.7-7.1c1.9-2.6,3.6-5.3,5.2-8c1.6-2.7,3-5.3,4.1-7.5c1.1-2.3,1.9-4.1,2.5-5.6
			C146.8,349.1,146.9,348.4,146.5,348.4z"/>
		<path class="st1" d="M260.7,285.8c-13.6,22-25.3,41.6-35.1,58.9c-4.2,7.3-8.1,14.5-11.8,21.6c-3.7,7.1-6.8,13.3-9.3,18.8
			c-2.5,5.5-4.1,9.9-4.9,13.3c-0.8,3.4-0.3,5,1.5,5c1.3,0,3.3-1.4,5.8-4.3c2.5-2.8,5.4-6.5,8.5-11.1c3.1-4.5,6.5-9.6,10-15.3
			c3.5-5.7,6.9-11.4,10.3-17.2c0.4-0.7,1.3-2.3,2.8-4.9c1.5-2.5,3.2-5.5,5.2-9c2-3.5,4.1-7.1,6.4-11.1c2.3-3.9,4.4-7.5,6.4-10.9
			c2-3.4,3.7-6.3,5.1-8.7c1.4-2.4,2.3-4,2.7-4.6c2.3-4.1,4.4-7.3,6.3-9.8c1.9-2.4,3.9-4.3,6.2-5.7c2.2-1.4,4.9-2.3,7.9-2.7
			c3.1-0.5,6.9-0.7,11.6-0.7c-0.6,1-1.8,3-3.4,5.9c-1.7,3-3.6,6.3-5.9,10.1c-2.2,3.8-4.6,7.9-7.2,12.3c-2.5,4.4-4.9,8.5-7.2,12.3
			c-2.2,3.8-4.2,7.2-5.9,10.1c-1.7,3-2.8,4.9-3.3,5.9c-4.9,8.3-10,16.3-15.3,23.9c-5.3,7.6-10.7,14.4-16.1,20.2
			c-5.4,5.8-10.9,10.5-16.4,14c-5.5,3.5-10.8,5.2-16,5.2c-4.5,0-7.7-1.4-9.7-4.3c-2-2.8-3-6.6-3.1-11.4c-0.1-4.7,0.8-10.2,2.5-16.5
			c1.7-6.3,4.1-12.8,7.1-19.5c3-6.8,6.5-13.6,10.5-20.4c4-6.9,8.3-13.3,12.8-19.3c4.5-6,9.2-11.3,14.1-16c4.9-4.7,9.7-8.3,14.3-10.8
			c-3-0.3-6.4,0.1-10.3,1.1c-3.9,1.1-7.9,2.7-12,5c-4.1,2.2-8,5-11.7,8.2c-3.8,3.3-7,6.9-9.7,10.9c-2.7,4-4.6,8.3-5.8,13
			c-1.2,4.6-1.2,9.4-0.1,14.4c-4.5,0.4-8.2-0.2-11.1-1.8c-2.9-1.6-5-3.8-6.2-6.6c-1.2-2.8-1.6-6.1-1.1-9.8c0.5-3.7,2-7.4,4.3-11.2
			c2.4-3.8,5.7-7.5,9.9-11.1c4.2-3.6,9.5-6.6,15.7-9.2c6.3-2.6,13.6-4.5,21.9-5.8C240.9,285.2,250.3,285,260.7,285.8z"/>
		<path class="st1" d="M263.6,406.3c-8.4,0-12.5-3.7-12.1-11.2c0.4-7.5,4.9-19.1,13.5-35c3.8-6.9,6.8-12.5,9.1-16.8
			c2.3-4.3,4.7-7.5,7.1-9.8c2.4-2.3,5.4-3.8,8.9-4.6c3.5-0.8,8.3-1.1,14.4-1.1c-8,13.8-15,26.1-21,36.9c-2.5,4.6-5,9.1-7.3,13.5
			c-2.3,4.4-4.3,8.4-6,11.8c-1.7,3.5-2.9,6.2-3.6,8.3c-0.7,2.1-0.8,3.1-0.2,3.1c0.9,0,2.1-0.7,3.6-2.1c1.5-1.4,3.5-4,6-7.6
			c2.5-3.7,5.8-8.7,9.7-15.1c3.9-6.4,8.8-14.6,14.7-24.6h3.2c-5.6,10.1-10.4,18.6-14.3,25.5c-4,6.9-7.5,12.5-10.4,16.8
			c-3,4.3-5.7,7.3-8,9.2C268.5,405.3,266.1,406.3,263.6,406.3z M314.7,307.9c-0.6,1.5-1.5,3-2.6,4.3c-1.1,1.4-2.4,2.6-3.7,3.6
			c-1.4,1-2.8,1.8-4.3,2.4c-1.5,0.6-3,0.9-4.4,0.9c-3,0.1-5-0.9-6.3-3c-1.2-2.1-1.2-4.7,0.1-7.8c0.6-1.5,1.5-3,2.6-4.3
			c1.1-1.4,2.4-2.6,3.7-3.7c1.4-1.1,2.8-1.9,4.3-2.5c1.5-0.6,3.1-0.9,4.6-0.9c2.9,0,5,1.1,6.2,3.2
			C316.1,302.3,316,304.9,314.7,307.9z"/>
		<path class="st1" d="M294.6,406.3c-4.2,0-7-1.3-8.6-4c-1.6-2.7-2.2-6.2-1.8-10.6c0.4-4.4,1.7-9.3,3.7-14.9
			c2.1-5.5,4.7-11.1,7.9-16.7c8-14.5,14.7-26.6,20.1-36.3c5.4-9.7,9.9-17.5,13.6-23.6c3.7-6.1,6.8-10.7,9.3-13.7
			c2.5-3,4.9-5.2,7.2-6.4c2.3-1.2,4.9-1.9,7.6-1.9c2.7-0.1,6.1-0.1,10.2-0.1c-13.4,23.1-25.2,43.7-35.2,61.8
			c-4.4,7.7-8.6,15.3-12.7,22.6c-4.1,7.4-7.6,14-10.6,19.8c-3,5.8-5.3,10.4-6.8,14c-1.5,3.5-2,5.3-1.4,5.3c0.9,0,2.1-0.7,3.5-2.1
			c1.4-1.4,3.4-4,5.9-7.6c2.5-3.7,5.8-8.7,9.8-15.1c4-6.4,8.8-14.6,14.6-24.6h3.4c-5.6,10.1-10.4,18.6-14.3,25.5
			c-4,6.9-7.4,12.5-10.4,16.8c-3,4.3-5.7,7.3-8,9.2C299.4,405.3,297,406.3,294.6,406.3z"/>
		<path class="st1" d="M325.4,406.3c-4.2,0-7-1.3-8.6-4c-1.6-2.7-2.2-6.2-1.8-10.6c0.4-4.4,1.7-9.3,3.7-14.9
			c2.1-5.5,4.7-11.1,7.9-16.7c8-14.5,14.7-26.6,20.1-36.3c5.4-9.7,9.9-17.5,13.7-23.6c3.7-6.1,6.8-10.7,9.3-13.7
			c2.5-3,4.9-5.2,7.2-6.4c2.3-1.2,4.9-1.9,7.6-1.9c2.7-0.1,6.2-0.1,10.2-0.1c-13.4,23.1-25.2,43.7-35.2,61.8
			c-4.4,7.7-8.6,15.3-12.7,22.6c-4.1,7.4-7.6,14-10.6,19.8c-3,5.8-5.3,10.4-6.8,14c-1.5,3.5-2,5.3-1.4,5.3c0.9,0,2.1-0.7,3.5-2.1
			c1.4-1.4,3.4-4,5.9-7.6c2.5-3.7,5.8-8.7,9.8-15.1c4-6.4,8.8-14.6,14.6-24.6h3.4c-5.6,10.1-10.4,18.6-14.3,25.5
			c-4,6.9-7.4,12.5-10.4,16.8c-3,4.3-5.7,7.3-8,9.2C330.2,405.3,327.8,406.3,325.4,406.3z"/>
		<path class="st1" d="M399.7,323.6c2.5,0,4.1,0.9,4.7,2.7c0.6,1.8,0.7,3.9,0.2,6.3c1.4-1.9,2.9-3.5,4.3-4.7
			c1.5-1.2,3.2-2.1,5.1-2.7c1.9-0.7,4.2-1.1,6.8-1.3c2.6-0.2,5.7-0.3,9.4-0.3c-8.4,14.5-15.8,27.5-22.1,38.9
			c-2.7,4.9-5.4,9.7-7.9,14.3c-2.5,4.7-4.6,8.8-6.3,12.4c-1.7,3.6-3,6.5-3.8,8.8c-0.8,2.2-0.9,3.4-0.3,3.4c0.9,0,2.1-0.7,3.5-2.1
			c1.4-1.4,3.4-4,6-7.6c2.5-3.7,5.8-8.7,9.8-15.1c4-6.4,8.8-14.6,14.6-24.6h3.4c-5.6,10.1-10.4,18.6-14.3,25.5
			c-4,6.9-7.5,12.5-10.4,16.8c-3,4.3-5.7,7.3-8,9.2c-2.3,1.9-4.7,2.8-7.2,2.8c-2.6,0-4.8-0.6-6.4-1.7c-1.6-1.1-2.8-2.7-3.4-4.7
			c-0.7-2-0.9-4.3-0.8-7.1c0.1-2.7,0.6-5.7,1.4-8.8c-4.1,6.7-7.8,12.1-11.3,16.2c-3.5,4.1-6.8,6.1-10.1,6.1c-4.2,0-7.2-1.2-9-3.6
			c-1.8-2.4-2.7-5.5-2.7-9.4c0-3.9,0.8-8.3,2.4-13.2c1.6-4.9,3.8-10,6.6-15.2c2.7-5.2,5.9-10.2,9.6-15.2c3.7-4.9,7.5-9.3,11.6-13.2
			c4.1-3.9,8.2-7,12.4-9.4C391.6,324.8,395.7,323.6,399.7,323.6z M394.3,349.4c0.7-1.6,1.6-3.7,2.6-6.1c1-2.4,1.9-4.8,2.7-7.2
			c0.8-2.3,1.2-4.3,1.4-6c0.2-1.7-0.3-2.5-1.3-2.5c-0.6,0-1.8,1.1-3.4,3.2c-1.7,2.1-3.7,4.9-5.9,8.4c-2.3,3.5-4.7,7.4-7.3,11.8
			c-2.6,4.4-5.2,8.9-7.8,13.5c-2.6,4.6-5,9.1-7.2,13.5c-2.2,4.4-4.1,8.4-5.7,11.8c-1.6,3.5-2.7,6.3-3.3,8.4
			c-0.6,2.1-0.5,3.2,0.3,3.2c1,0,2.5-1.2,4.5-3.5c2-2.3,4.2-5.3,6.6-8.9c2.4-3.6,5-7.5,7.6-11.7c2.6-4.2,5-8.1,7.2-11.7
			c0.5-0.9,1-1.8,1.5-2.7c0.5-0.9,1-1.8,1.5-2.7L394.3,349.4z"/>
	</g>
</g>
<g>
	<g>
		<path class="st1" d="M217.6,273.7l-35,0l0-123.4c0.3-20.9,8.7-40.4,23.6-55c14.9-14.7,34.6-22.7,55.5-22.7
			c20.9,0,40.6,8.1,55.5,22.7c14.9,14.6,23.2,34.2,23.6,55l0,0.3l0,123.2l-35,0L217.6,273.7z"/>
	</g>
	<g>
		<path class="st1" d="M217.6,273.7l-35,0l0-123.4c0.3-20.9,8.7-40.4,23.6-55c14.9-14.7,34.6-22.7,55.5-22.7
			c20.9,0,40.6,8.1,55.5,22.7c14.9,14.6,23.2,34.2,23.6,55l0,0.3l0,123.2l-35,0l0-123c-0.5-23.9-20.2-43.3-44.1-43.3
			c-23.9,0-43.6,19.4-44.1,43.3L217.6,273.7z"/>
	</g>
	<path class="st14" d="M227.5,118.2l-20-18.9c-13.2,13.7-20.7,31.7-21.1,50.8h27.5C214.3,137.7,219.4,126.5,227.5,118.2z"/>
	<path class="st15" d="M309.5,150.1H337c-0.4-19.1-7.9-37.1-21.1-50.8l-20,18.9C304,126.5,309.1,137.7,309.5,150.1z"/>
	<path class="st14" d="M294,116.4l18.9-20c-13.5-12.5-30.8-19.6-49.2-20.1l-0.8,27.5C274.9,104.1,285.8,108.8,294,116.4z"/>
	<path class="st15" d="M260.4,103.8l-0.8-27.5c-18.4,0.5-35.7,7.6-49.2,20.1l18.9,20C237.6,108.8,248.5,104.1,260.4,103.8z"/>
	<rect x="309.5" y="154.8" class="st14" width="27.5" height="35.9"/>
	<rect x="186.4" y="154.8" class="st15" width="27.5" height="35.9"/>
	<rect x="186.4" y="195.1" class="st14" width="27.5" height="35.9"/>
	<rect x="309.5" y="195.1" class="st15" width="27.5" height="35.9"/>
	<rect x="186.4" y="235.4" class="st15" width="27.5" height="35.9"/>
	<rect x="309.5" y="235.4" class="st14" width="27.5" height="35.9"/>
	
		<linearGradient id="SVGID_00000017483642183605855890000018069659998550214827_" gradientUnits="userSpaceOnUse" x1="261.6831" y1="272.9714" x2="261.6831" y2="109.3033">
		<stop  offset="0" style="stop-color:#000000;stop-opacity:0"/>
		<stop  offset="0.5606" style="stop-color:#000000"/>
	</linearGradient>
	<path style="fill:url(#SVGID_00000017483642183605855890000018069659998550214827_);" d="M305.8,273.7l0-123
		c-0.5-23.9-20.2-43.3-44.1-43.3c-23.9,0-43.6,19.4-44.1,43.3l0,123L305.8,273.7z"/>
</g>
</svg>
